Containg :
+ Movie (AVI > XVID + MP3) - 
+ subs (FR + EN) 
+ posters 
+ DVD covers 
+ Original soundtrack by Amon Tobin (MP3 320 kb/s)

++++++++++++++++++++++++++
ENJOY AND KEEP SEEDING !

+++++++++++++++++++++++
Format                           : AVI
Format/Info                      : Audio Video Interleave
File size                        : 694 MiB
Duration                         : 1h 30mn
Overall bit rate                 : 1 072 Kbps
Writing application              : MEncoder 1.0pre7try2-3.3.5
Writing library                  : MPlayer
Copyright                        : - PREtorians -

Video
ID                               : 0
Format                           : MPEG-4 Visual
Format profile                   : Simple@L1
Format settings, BVOP            : No
Format settings, QPel            : No
Format settings, GMC             : No warppoints
Format settings, Matrix          : Default (H.263)
Codec ID                         : XVID
Codec ID/Hint                    : XviD
Duration                         : 1h 30mn
Bit rate                         : 939 Kbps
Width                            : 640 pixels
Height                           : 272 pixels
Display aspect ratio             : 2.35:1
Frame rate                       : 25.000 fps
Color space                      : YUV
Chroma subsampling               : 4:2:0
Bit depth                        : 8 bits
Scan type                        : Progressive
Bits/(Pixel*Frame)               : 0.216
Stream size                      : 608 MiB (88%)
Writing library                  : FFmpeg0.4.9-pre1b4752

Audio
ID                               : 1
Format                           : MPEG Audio
Format version                   : Version 1
Format profile                   : Layer 3
Mode                             : Joint stereo
Mode extension                   : MS Stereo
Codec ID                         : 55
Codec ID/Hint                    : MP3
Duration                         : 1h 30mn
Bit rate mode                    : Constant
Bit rate                         : 128 Kbps
Channel(s)                       : 2 channels
Sampling rate                    : 48.0 KHz
Stream size                      : 82.9 MiB (12%)
Alignment                        : Aligned on interleaves
Interleave, duration             : 480 ms (12.00 video frames)
Interleave, preload duration     : 960 ms

++++++++++++++++++++++++++++++++++
SoundTrack

Format                           : MPEG Audio
Duration                         : 4mn 30s
Overall bit rate                 : 320 Kbps
Album                            : Taxidermia EP
Part/Position                    : 1/1 / 1
Part/Total                       : 1
Track name                       : Taxidermia (Magpie Mix)
Track name/Position              : 9
Track name/Total                 : 9
Performer                        : Amon Tobin
Accompaniment                    : Amon Tobin
Composer                         : Amon Tobin
Genre                            : Soundtrack
Recorded date                    : 2008
Cover                            : Yes
Cover MIME                       : image/jpeg

Audio
Format                           : MPEG Audio
Format version                   : Version 1
Format profile                   : Layer 3
Mode                             : Joint stereo
Bit rate mode                    : Constant
Bit rate                         : 320 Kbps
Channel(s)                       : 2 channels
Sampling rate                    : 44.1 KHz

